<svg xmlns="http://www.w3.org/2000/svg" width="339.45" height="324.082" viewBox="0 0 339.45 324.082">
  <g id="telephone-svgrepo-com" transform="translate(0 -13.854)">
    <path id="Caminho_28" data-name="Caminho 28" d="M325.541,148.169a35.528,35.528,0,0,0-13.606-8.828c5.989-34.836,4.888-54.3-136.8-98.908C30.934-4.962,14.8,13.852,2.925,51.579L.9,58.014A19.381,19.381,0,0,0,13.566,82.319L59.827,96.883A19.38,19.38,0,0,0,84.132,84.217l2.026-6.435c9.2-29.225,54.23-16.032,79.737-8s69.973,23.013,60.773,52.238l-2.026,6.435a19.381,19.381,0,0,0,12.666,24.305l46.261,14.564a19.38,19.38,0,0,0,24.305-12.666l1.314-4.458a24.465,24.465,0,0,1,8.388,5.666c9.736,10.085,12.967,29.568,9.342,56.347-6.287,46.4-24.521,62.974-43.94,68.49v-8.072a46.234,46.234,0,0,0-6.2-23.395c-19.38-33.167-46.9-62.6-81.866-88.538v-19.6a2.777,2.777,0,0,0-2.768-2.769H163.375a2.76,2.76,0,0,0-2.769,2.769v19.49H127.771v-19.49A2.777,2.777,0,0,0,125,138.323H96.211a2.777,2.777,0,0,0-2.769,2.769v19.49c-35.022,26-62.569,55.426-81.977,88.649a46.234,46.234,0,0,0-6.2,23.394V290.87a47.061,47.061,0,0,0,47.065,47.065H235.911a47.031,47.031,0,0,0,47-45.858c31.125-7.29,48.782-32.685,54.973-78.382C342.047,183,337.891,160.957,325.541,148.169ZM192.213,273.11l-18.472-6.577a29.45,29.45,0,1,0-10.124,11.506l10.131,16.654a49.019,49.019,0,1,1,18.465-21.583Z" transform="translate(0 0)" fill="#ebebeb"/>
  </g>
</svg>
