<svg xmlns="http://www.w3.org/2000/svg" xmlns:xlink="http://www.w3.org/1999/xlink" width="1920" height="316" viewBox="0 0 1920 316">
  <defs>
    <clipPath id="clip-Web_1920_1">
      <rect width="1920" height="316"/>
    </clipPath>
  </defs>
  <g id="Web_1920_1" data-name="Web 1920 – 1" clip-path="url(#clip-Web_1920_1)">
    <rect width="1920" height="316" fill="#2d2d2d"/>
    <g id="xbox-one-games-console-svgrepo-com" transform="translate(1118 -122.291)">
      <g id="Grupo_1" data-name="Grupo 1">
        <rect id="Retângulo_1" data-name="Retângulo 1" width="277.438" height="51.53" transform="translate(0 215.733)" fill="#fff"/>
        <rect id="Retângulo_2" data-name="Retângulo 2" width="277.438" height="54.572" transform="translate(0 290.703)" fill="#fff"/>
        <path id="Caminho_1" data-name="Caminho 1" d="M561,215.733H283.559V345.275H561V215.733Zm-74.609,34.682a24.371,24.371,0,0,1,14.811,5.074,19.528,19.528,0,0,0-15.012,2.711,19.581,19.581,0,0,0-14.518-2.785A24.369,24.369,0,0,1,486.393,250.415Zm-24.59,24.59a24.464,24.464,0,0,1,7.975-18.03c1.518.973,9.621,3.929,10.232,7.283,0,0-16.438,16.01-10.838,28.275A24.523,24.523,0,0,1,461.8,275.005Zm24.59,24.585a24.439,24.439,0,0,1-16.873-6.781c.129-2.2,1.6-11.354,16.672-22.981,16.041,12.387,16.676,21.958,16.684,23.311A24.423,24.423,0,0,1,486.393,299.59Zm16.591-6.543c6.316-12.326-10.619-28.789-10.619-28.789.668-3.66,10.166-6.817,10.4-7.479a24.339,24.339,0,0,1,.215,36.268Z" fill="#fff"/>
        <path id="Caminho_2" data-name="Caminho 2" d="M559.852,206.553l-1.15-3.06-1.678-4.468a9.484,9.484,0,0,0-8.268-5.728h-265.2v16.316H561Z" fill="#fff"/>
        <path id="Caminho_3" data-name="Caminho 3" d="M277.438,206.553V193.291H12.24a9.487,9.487,0,0,0-8.269,5.728l-1.677,4.474-1.145,3.06L0,209.613H277.438Z" fill="#fff"/>
        <path id="Caminho_4" data-name="Caminho 4" d="M557.029,361.982l1.678-4.467,1.15-3.061,1.15-3.061H283.559v16.323h265.2A9.5,9.5,0,0,0,557.029,361.982Z" fill="#fff"/>
        <path id="Caminho_5" data-name="Caminho 5" d="M2.3,357.516l1.677,4.467a9.487,9.487,0,0,0,8.269,5.729h265.2V351.388H0l1.15,3.061Z" fill="#fff"/>
        <path id="Caminho_6" data-name="Caminho 6" d="M22.65,273.873c-3.378,0-6.12,2.289-6.12,5.11s2.742,5.11,6.12,5.11H238.221c3.378,0,6.12-2.289,6.12-5.11s-2.742-5.11-6.12-5.11Z" fill="#fff"/>
        <path id="Caminho_7" data-name="Caminho 7" d="M260.645,271.083l-6.469,10.4h12.938Z" fill="#fff"/>
        <rect id="Retângulo_3" data-name="Retângulo 3" width="12.944" height="3.157" transform="translate(254.17 283.721)" fill="#fff"/>
      </g>
    </g>
    <g id="xbox-one-2_2_" data-name="xbox-one-2 (2)" transform="translate(397 158.212)">
      <path id="Caminho_8" data-name="Caminho 8" d="M198.964,56.025,182.331,33.45,165.715,56.025H158.87l20-27.276L160.6,3.956h6.845l14.881,20.221L197.212,3.956h6.841L185.8,28.745l20,27.28ZM69.349,56.016,49.329,28.745,67.592,3.956H60.747L45.861,24.181,30.988,3.956H24.161L42.415,28.745,22.4,56.016h6.854L45.87,33.45,62.5,56.016Z" transform="translate(79.821 14.097)" fill="#139d14"/>
      <path id="Caminho_9" data-name="Caminho 9" d="M187.229,44.813a14.589,14.589,0,0,0-3.413-2.172,11.8,11.8,0,0,0,6.261-10.427c0-3.331-1.228-14.165-16.926-14.165H152.009V40.5h-7.041c-.913,1.191-2.989,4.052-3.779,5.225h10.82V70.113l21.147,0c11.454,0,18.569-5.814,18.569-15.2a12.85,12.85,0,0,0-4.5-10.1m-29.375-21.33h15.3c4.139,0,11.076,1.031,11.076,8.274,0,5.476-4.039,8.739-11.076,8.739h-15.3V23.484Zm15.3,41.2h-15.3V45.735h15.3c5.8,0,12.741,1.6,12.741,9.068,0,8.6-7.981,9.884-12.741,9.884m46.077-47.834c-14.626,0-24.848,11.185-24.848,27.2,0,16.041,10.222,27.216,24.848,27.216S244.035,60.1,244.035,44.056c0-16.018-10.195-27.2-24.807-27.2m0,48.911c-11.144,0-18.952-8.931-18.952-21.708s7.808-21.7,18.952-21.7c11.126,0,18.888,8.926,18.888,21.7s-7.762,21.708-18.888,21.708M12.951,12.481l-.041.037v0A43.39,43.39,0,0,0,8.871,69.693a.193.193,0,0,0,.233.073.174.174,0,0,0,.05-.224C5.846,59.311,22.758,34.513,31.5,24.118a.228.228,0,0,0,.064-.128.2.2,0,0,0-.082-.141C16.78,9.218,12.855,12.563,12.91,12.518m60.945-.037.041.037v0A43.4,43.4,0,0,1,77.93,69.693a.191.191,0,0,1-.233.073.185.185,0,0,1-.05-.224C80.956,59.311,64.057,34.5,55.323,24.1a.2.2,0,0,1-.064-.123.186.186,0,0,1,.082-.146c14.7-14.63,18.6-11.263,18.55-11.308M43.4,0A42.786,42.786,0,0,1,66.01,6.352a.164.164,0,0,1,.073.214.167.167,0,0,1-.21.073c-8.4-1.816-21.174,5.444-22.379,6.17a.138.138,0,0,1-.187,0C40.1,10.971,28.3,4.782,20.864,6.685a.161.161,0,0,1-.137-.292A42.743,42.743,0,0,1,43.4,0m0,34.81a.245.245,0,0,1,.137.068c12.988,9.875,35.216,34.29,28.43,41.194l.009-.009,0,.009h-.009a43.376,43.376,0,0,1-57.139,0l-.009-.009.009.009c-6.772-6.9,15.452-31.319,28.426-41.194a.287.287,0,0,1,.151-.068M386.666,18.053V60.781l-31.474-42.76-5.161-.009V70.035h5.8V28.252l30.831,41.815,5.809.009V18.053Zm-66.722-1.209c-14.626,0-24.853,11.19-24.853,27.2,0,16.041,10.227,27.235,24.853,27.235S344.75,60.087,344.75,44.046c0-16.009-10.195-27.2-24.807-27.2m0,48.92c-11.144,0-18.952-8.931-18.952-21.717s7.808-21.7,18.952-21.7c11.126,0,18.888,8.931,18.888,21.7s-7.762,21.717-18.888,21.717m84.857-.78V45.735h28.645V40.642H404.8V23.1H435.39V18.017H398.973v52.06H435.75V64.984Z" transform="translate(0)" fill="#139d14"/>
    </g>
    <g id="fire-svgrepo-com" transform="matrix(0.995, -0.105, 0.105, 0.995, 286.253, 49.516)">
      <path id="Caminho_10" data-name="Caminho 10" d="M97.1,46.2a20.791,20.791,0,0,0,20.791,20.791h0A20.791,20.791,0,0,0,138.685,46.2c0-11.551-5.775-20.791-1.9-28.876,0,0-6.185,1.155-9.65,10.4,0,0-11.551-11.551-6.725-27.721,0,0-11.756,4.62-10.527,19.636,1.054,12.876-1.229,15.016-1.229,15.016a17.734,17.734,0,0,0-8.127-15.016C102.878,32.341,97.1,35.806,97.1,46.2Z" fill="#ffb446"/>
      <path id="Caminho_11" data-name="Caminho 11" d="M178.623,196.9c0,8.648-6.677,16.031-15.324,15.864-8.137-.157-14.191-6.348-13.544-14.435.289-3.61,3.032-9.457,7.508-15.377l2.984,1.8c-.1-7.315,3.369-17.037,3.369-17.037C165.892,177.967,178.623,180.622,178.623,196.9Z" transform="translate(-45.722 -145.779)" fill="#ffdc64"/>
      <path id="Caminho_12" data-name="Caminho 12" d="M188.844,289.413c-1.155,6.93-3.465,9.453-3.465,13.861a9.566,9.566,0,0,0,9.24,9.24h0a9.269,9.269,0,0,0,9.24-9.34c-.039-13.805-8.085-20.691-8.085-20.691,1.155,6.93-2.31,10.4-2.31,10.4A11.735,11.735,0,0,0,188.844,289.413Z" transform="translate(-76.725 -245.522)" fill="#fff"/>
    </g>
    <text id="EPIC_SALE" data-name="EPIC SALE" transform="translate(440 120)" fill="#e5e5e5" font-size="70" font-family="InkFree, Ink Free"><tspan x="0" y="0">EPIC SALE</tspan></text>
    <g id="fire-svgrepo-com-2" data-name="fire-svgrepo-com" transform="matrix(-0.995, -0.105, 0.105, -0.995, 841.179, 105.991)">
      <path id="Caminho_10-2" data-name="Caminho 10" d="M0,20.791A20.791,20.791,0,0,1,20.791,0h0A20.791,20.791,0,0,1,41.582,20.791c0,11.551-5.775,20.791-1.9,28.876,0,0-6.185-1.155-9.65-10.4,0,0-11.551,11.551-6.725,27.721,0,0-11.756-4.62-10.527-19.636,1.054-12.876-1.229-15.016-1.229-15.016A17.734,17.734,0,0,1,3.423,47.357C5.775,34.652,0,31.186,0,20.791Z" transform="translate(0)" fill="#ffb446"/>
      <path id="Caminho_11-2" data-name="Caminho 11" d="M28.915,15.867C28.915,7.219,22.238-.164,13.591,0,5.454.16-.6,6.351.047,14.438c.289,3.61,3.032,9.457,7.508,15.377l2.984-1.8c-.1,7.315,3.369,17.037,3.369,17.037C16.184,34.8,28.915,32.149,28.915,15.867Z" transform="translate(6.883 0)" fill="#ffdc64"/>
      <path id="Caminho_12-2" data-name="Caminho 12" d="M3.465,23.1C2.31,16.171,0,13.648,0,9.24A9.566,9.566,0,0,1,9.24,0h0a9.269,9.269,0,0,1,9.24,9.34C18.442,23.145,10.4,30.031,10.4,30.031c1.155-6.93-2.31-10.4-2.31-10.4A11.735,11.735,0,0,1,3.465,23.1Z" transform="translate(11.551 0)" fill="#fff"/>
    </g>
  </g>
</svg>
