<svg xmlns="http://www.w3.org/2000/svg" xmlns:xlink="http://www.w3.org/1999/xlink" width="1920" height="316" viewBox="0 0 1920 316">
  <defs>
    <clipPath id="clip-Web_1920_3">
      <rect width="1920" height="316"/>
    </clipPath>
  </defs>
  <g id="Web_1920_3" data-name="Web 1920 – 3" clip-path="url(#clip-Web_1920_3)">
    <rect width="1920" height="316" fill="#f8293c"/>
    <g id="nintendo-64-console-svgrepo-com" transform="translate(1199 -83.169)">
      <g id="Grupo_2" data-name="Grupo 2" transform="translate(0 146.572)">
        <path id="Caminho_18" data-name="Caminho 18" d="M242.546,183.6c26.256,0,46.19,7.823,65.464,15.4v-34.4a18.035,18.035,0,0,0-18.033-18.033H195a18.035,18.035,0,0,0-18.033,18.033v34.439l.018-.007C196.286,191.449,216.246,183.6,242.546,183.6Z" transform="translate(-72.676 -146.572)" stroke="#fff" stroke-width="2"/>
        <path id="Caminho_19" data-name="Caminho 19" d="M46.757,284.984H73.706A17.274,17.274,0,0,1,90.96,302.239V325.8H273.225V302.243a17.274,17.274,0,0,1,17.255-17.255h23.962v-.331h19.35s-.646-25.286-13.546-26.574-38.057-1.936-61.277-10.322c-3.351-1.212-6.676-2.492-10-3.791-19.725-7.707-39.526-16.2-65.465-16.2-25.99,0-45.815,8.53-65.575,16.248-3.29,1.284-6.579,2.55-9.894,3.747-23.223,8.385-48.379,9.031-61.277,10.322s-13.547,26.574-13.547,26.574H46.757Zm68.768,26.575a12.468,12.468,0,0,1-10.185-5.292h20.367A12.457,12.457,0,0,1,115.525,311.559Zm24.879-12.5a12.5,12.5,0,1,1,25.008,0H140.4Zm83.688,0H199.083a12.5,12.5,0,1,1,25.008,0Zm-71.187,12.5a12.467,12.467,0,0,1-10.185-5.292h20.367A12.447,12.447,0,0,1,152.9,311.559Zm58.683,0a12.468,12.468,0,0,1-10.185-5.292H221.77A12.447,12.447,0,0,1,211.587,311.559Zm37.383,0a12.468,12.468,0,0,1-10.185-5.292h20.368A12.457,12.457,0,0,1,248.97,311.559Zm12.5-12.5h-25a12.5,12.5,0,1,1,25,0Zm-97.747-59.722h39.562a11.073,11.073,0,0,1,10.819,10.82s-4.844,23.021-10.819,23.021H163.724c-5.976,0-10.82-23.021-10.82-23.021a11.073,11.073,0,0,1,10.82-10.82Zm-60.7,59.722a12.5,12.5,0,1,1,25.008,0H103.02Z" transform="translate(-13.637 -179.917)" stroke="#fff" stroke-width="2"/>
        <path id="Caminho_20" data-name="Caminho 20" d="M10.041,388.987H60.069a10.018,10.018,0,0,0,9.665-7.455,9.878,9.878,0,0,0,.379-2.587v-31.8a10.042,10.042,0,0,0-10.041-10.041H10.041a9.565,9.565,0,0,0-1.486.152A10.014,10.014,0,0,0,0,347.149v31.8A10.038,10.038,0,0,0,10.041,388.987Z" transform="translate(0 -224.82)" stroke="#fff" stroke-width="2"/>
        <path id="Caminho_21" data-name="Caminho 21" d="M486.743,337.1H462.78a10.041,10.041,0,0,0-10.04,10.041v31.8a9.836,9.836,0,0,0,.379,2.587,10.014,10.014,0,0,0,9.665,7.455h50.028a10.042,10.042,0,0,0,10.041-10.041v-31.8A10.148,10.148,0,0,0,512.808,337.1H486.743Z" transform="translate(-185.931 -224.817)" stroke="#fff" stroke-width="2"/>
        <path id="Caminho_22" data-name="Caminho 22" d="M254.726,280.3h32.262c4.872,0,8.825-18.772,8.825-18.772a8.7,8.7,0,0,0-.509-2.838,8.79,8.79,0,0,0-8.312-5.983H254.73a8.964,8.964,0,0,0-8.822,8.822S249.853,280.3,254.726,280.3Z" transform="translate(-100.989 -190.159)" stroke="#fff" stroke-width="2"/>
      </g>
    </g>
    <g id="nintendo-2-logo-svgrepo-com" transform="translate(543 -9.816)">
      <path id="Caminho_24" data-name="Caminho 24" d="M53,167.816C22.927,167.807,2.835,146.5,2.835,120.661S22.979,73.266,52.956,73.334H336.247c29.977-.068,50.121,21.486,50.121,47.327s-20.1,47.146-50.17,47.155Z" fill="#cc2131" fill-rule="evenodd"/>
      <path id="Caminho_25" data-name="Caminho 25" d="M47.032,79C23.225,79.046,8.608,94.96,8.608,114.643s14.522,35.72,38.424,35.631h283.01c23.9.088,38.43-15.951,38.43-35.631s-14.619-35.595-38.43-35.638H47.032Z" transform="translate(6.062 5.955)" fill="#fff" fill-rule="evenodd"/>
      <path id="Caminho_27" data-name="Caminho 27" d="M168.82,92.655a8.9,8.9,0,1,1,8.922,8.8A8.771,8.771,0,0,1,168.82,92.655ZM177.742,100a7.32,7.32,0,1,0-7.151-7.341A7.085,7.085,0,0,0,177.742,100Z" transform="translate(174.288 11.094)" fill="#cc2131" fill-rule="evenodd"/>
      <path id="Caminho_26" data-name="Caminho 26" d="M21.4,85.5h13.85l19.178,31.013L54.417,85.5H68.162v44.481H54.435L35.161,98.962v31.015H21.393Zm121.521,4.58h13.387v5.984h7.243v4.393h-7.243l.008,29.524H142.921l.006-29.524h-7.269V96.063h7.273ZM75.821,100.4H89.2v29.578H75.821Zm-.029-14.912H89.2v9.094H75.792ZM315.582,114.95s-.008,4.465-.008,6.263c0,4.713-2.782,6.663-5.469,6.663s-5.478-1.95-5.478-6.663c0-1.8.008-6.374.008-6.374s.012-4.373.012-6.171c0-4.695,2.79-6.626,5.457-6.626s5.469,1.931,5.469,6.626c0,1.8,0,5.109.008,6.3v-.02Zm-5.373-16.572c-10.791,0-19.539,7.437-19.539,16.613s8.75,16.605,19.539,16.605,19.551-7.435,19.551-16.605-8.747-16.613-19.551-16.613ZM273.109,85.5h13.2v44.473H273.089l-.008-1.7a16.1,16.1,0,0,1-15.4,1.109,15.8,15.8,0,0,1-9.149-14.662c0-7.815,7.372-16.337,17-15.492a17.933,17.933,0,0,1,7.571,2.638Zm.1,29.543v-5.285c0-4.576-3.155-5.74-5.238-5.74-2.134,0-5.25,1.164-5.25,5.74,0,1.509.008,5.273.008,5.273s-.008,3.68-.008,5.256c0,4.572,3.116,5.765,5.25,5.765,2.083,0,5.238-1.193,5.238-5.765Zm-152.7-16.007c5-.137,15.15,3.137,15.076,14.85-.014,2.075,0,16.089,0,16.089H122.291V110.547a5.918,5.918,0,0,0-6.107-5.449c-3.647,0-6.353,2.868-6.353,5.449l.014,19.424H96.563l-.01-29.576,13.29-.01s-.014,2.382,0,3.108a16.138,16.138,0,0,1,10.664-4.461Zm108.707,0c4.99-.137,15.139,3.137,15.076,14.85-.021,2.075-.012,16.089-.012,16.089H230.99V110.547a5.915,5.915,0,0,0-6.107-5.449c-3.645,0-6.359,2.868-6.359,5.449l.021,19.424H205.266l.008-29.576,13.27-.01s-.021,2.382,0,3.108A16.132,16.132,0,0,1,229.214,99.032Zm-53.2,11.675c-.025-2.587.029-4.317.877-5.806a5.487,5.487,0,0,1,4.713-2.7h-.008a5.45,5.45,0,0,1,4.7,2.7c.849,1.486.9,3.219.877,5.806H176.012Zm11.107,8.922s.012.131.012,1.8c0,5.41-3.559,6.615-5.529,6.615s-5.6-1.205-5.6-6.615c0-1.626.021-6.109.021-6.109s25.189.008,25.189,0c0-9.176-8.852-16.775-19.732-16.775s-19.695,7.437-19.695,16.6,8.821,16.615,19.695,16.615c9.024,0,16.644-5.154,18.979-12.144l-13.339.012ZM330.69,96.079h-1.542V85.95h3.864c2.386,0,3.575.884,3.575,2.878a2.641,2.641,0,0,1-2.63,2.79l2.878,4.461h-1.714l-2.675-4.393H330.69v4.393Zm1.833-5.695c1.3,0,2.454-.09,2.454-1.648,0-1.253-1.138-1.488-2.2-1.488h-2.091v3.137Z" transform="translate(19.486 12.761)" fill="#cc2131" fill-rule="evenodd"/>
    </g>
    <text id="CONSOLES_ANTIGOS" data-name="CONSOLES ANTIGOS" transform="translate(519 217)" fill="#fff" stroke="#000" stroke-width="0.25" font-size="50" font-family="TrebuchetMS, Trebuchet MS"><tspan x="0" y="0">CONSOLES ANTIGOS</tspan></text>
  </g>
</svg>
