<svg xmlns="http://www.w3.org/2000/svg" xmlns:xlink="http://www.w3.org/1999/xlink" width="1920" height="316" viewBox="0 0 1920 316">
  <defs>
    <clipPath id="clip-Web_1920_2">
      <rect width="1920" height="316"/>
    </clipPath>
  </defs>
  <g id="Web_1920_2" data-name="Web 1920 – 2" clip-path="url(#clip-Web_1920_2)">
    <rect width="1920" height="316" fill="#cbcbcb"/>
    <g id="playstation-5-svgrepo-com" transform="translate(1624.992 20.029)">
      <path id="Caminho_13" data-name="Caminho 13" d="M124.377,11.1a1.117,1.117,0,0,0-1.529-.853L37.059,42.249a1.15,1.15,0,0,0-.748,1.091c.1,8.847.234,17.715.369,26.92.385,26.389.811,55.547.811,94.917,0,15.157-.11,27.87-.208,39.13-.158,18.28-.284,32.733.149,47.611a1.1,1.1,0,0,0,.938,1.075c25.2,3.422,81.7,2.927,109.575,2.181a1.124,1.124,0,0,0,1.1-1.17C146.047,167.91,131.66,58.258,124.377,11.1Zm-2.334-3.01a3.42,3.42,0,0,1,4.61,2.659c7.287,47.195,21.69,156.951,24.695,243.182a3.424,3.424,0,0,1-3.341,3.548c-27.829.748-84.529,1.253-109.946-2.2a3.4,3.4,0,0,1-2.93-3.291c-.434-14.914-.308-29.44-.15-47.761.1-11.258.207-23.95.207-39.047,0-39.352-.426-68.487-.811-94.873-.134-9.208-.264-18.082-.369-26.938a3.453,3.453,0,0,1,2.246-3.276Z" transform="translate(0 0)" stroke="#000" stroke-width="1" fill-rule="evenodd"/>
      <path id="Caminho_14" data-name="Caminho 14" d="M86.23,60.664a1.151,1.151,0,0,1,1.151,1.151v9.6a1.151,1.151,0,1,1-2.3,0v-9.6A1.151,1.151,0,0,1,86.23,60.664Z" transform="translate(66.529 68.782)" stroke="#000" stroke-width="1" fill-rule="evenodd"/>
      <path id="Caminho_15" data-name="Caminho 15" d="M168.159,13.894a17.416,17.416,0,0,1,.059,2.971c-4.911,105.166-2.013,200.065.032,235.5a1.15,1.15,0,0,1-1.082,1.216c-.161.009-.323.018-.485.03a132.649,132.649,0,0,1-19.235-.03,1.152,1.152,0,0,1,.16-2.3,127.921,127.921,0,0,0,18.278.067c-2.044-36.368-4.831-130.449.032-234.591a15.207,15.207,0,0,0-.043-2.569,3.288,3.288,0,0,0-.521-1.552c-.418-.565-1.4-1.127-4.242-.666-1.131.184-5.4,1.244-11.97,2.95-6.532,1.7-15.261,4.007-25.243,6.665a1.151,1.151,0,1,1-.592-2.225c9.982-2.658,18.717-4.972,25.256-6.669C155.062,11,159.475,9.9,160.743,9.7c3.055-.5,5.236-.086,6.461,1.569A5.534,5.534,0,0,1,168.159,13.894ZM37,253.486a1.149,1.149,0,0,1,1.245-1.05c6.606.562,13.564,1.018,20.685,1.382a1.152,1.152,0,0,1-.118,2.3c-7.142-.366-14.126-.824-20.763-1.389A1.15,1.15,0,0,1,37,253.486Z" transform="translate(3.897 2.133)" stroke="#000" stroke-width="1" fill-rule="evenodd"/>
      <path id="Caminho_16" data-name="Caminho 16" d="M103.664,19.438c-2.487-3.052-5.381-3.777-7.158-3.614l-.05,0-19.878.955c.1.638.247,1.524.428,2.684.429,2.749,1.075,7.034,1.943,13.186,1.736,12.3,4.361,32.075,7.92,61.958,7.321,61.466,11.471,123.5,12.33,151.112,4.152.631,9.995.279,13.82-.071-.29-12.241-.713-29.232-1.188-48.321-1.5-60.444-3.531-141.9-3.531-159.946C108.3,27.981,106.158,22.5,103.664,19.438ZM74.156,15.883l-.06.011,0,.013.007.042.029.171c.026.154.066.389.119.709.106.641.265,1.625.479,2.993.427,2.737,1.071,7.011,1.937,13.153,1.733,12.284,4.356,32.039,7.914,61.909C91.981,157,96.136,219.677,96.925,246.726a1.152,1.152,0,0,0,.923,1.1c4.942.995,12.533.412,16.462.016a1.151,1.151,0,0,0,1.036-1.172c-.292-12.329-.726-29.78-1.215-49.45C112.627,136.778,110.6,55.4,110.6,37.384c0-9.719-2.209-15.789-5.152-19.4s-6.555-4.681-9.127-4.455L75.174,14.545A1.151,1.151,0,0,0,74.1,15.893Z" transform="translate(52.198 7.343)" stroke="#000" stroke-width="1" fill-rule="evenodd"/>
      <path id="Caminho_17" data-name="Caminho 17" d="M47.833,115.321a1.151,1.151,0,0,1,1.13-.93c17.3,0,32.632.854,46.478,1.709q2.144.131,4.24.263c12.153.758,23.123,1.441,33.309,1.441a1.151,1.151,0,0,1,1.11.845L136.4,127a1.151,1.151,0,0,1-1.11,1.458H46.66a1.151,1.151,0,0,1-1.13-1.372Zm2.078,1.372-1.852,9.462h85.722l-1.668-6.051c-10.014-.037-20.776-.709-32.569-1.444L95.3,118.4C81.716,117.559,66.747,116.726,49.911,116.694Z" transform="translate(14.982 138.771)" stroke="#000" stroke-width="1" fill-rule="evenodd"/>
    </g>
    <g id="layer1" transform="translate(1312.272 18.396)">
      <path id="rect840" d="M89.16,100.89a21.047,21.047,0,0,0-21.047,21.047V157.85a11.9,11.9,0,0,1-11.9,11.9H15.7v8.917H63.886a21.047,21.047,0,0,0,21.047-21.048V121.7a11.9,11.9,0,0,1,11.9-11.9H138.1V100.89Z" fill-rule="evenodd"/>
      <path id="path916" d="M-92.414,100.89v8.916H-7.787A12.213,12.213,0,0,1,4.425,122.018,12.213,12.213,0,0,1-7.787,134.231H-71.367a21.047,21.047,0,0,0-21.047,21.047v23.386h16.819V155.045a11.9,11.9,0,0,1,11.9-11.9H.116a21.129,21.129,0,0,0,0-42.258Z" fill-rule="evenodd"/>
      <path id="path929" d="M154.307,100.89v29.041a13.216,13.216,0,0,0,13.216,13.217h70.423a13.3,13.3,0,1,1,0,26.6H154.307v8.917h91.543a22.217,22.217,0,0,0,0-44.433H176.438a5.312,5.312,0,0,1-5.312-5.312V109.806h93.891V100.89Z" fill-rule="evenodd"/>
      <path id="path72" d="M-239.024,75.6V195.442l27.12,8.611V103.532c0-4.7,2.1-7.856,5.486-6.753,4.426,1.224,5.288,5.558,5.288,10.266v40.143c16.913,8.161,30.211-.005,30.211-21.547,0-22.108-7.784-31.914-30.743-39.814C-210.7,82.8-227.486,77.733-239.024,75.6"/>
      <path id="path76" d="M-206.767,186.544l43.621-15.553c4.944-1.771,5.708-4.286,1.688-5.6s-11.291-.929-16.235.837l-29.074,10.246V160.184l1.674-.561a99.55,99.55,0,0,1,20.2-4.291c11.814-1.282,26.278.169,37.622,4.485,12.8,4.049,14.237,9.995,10.991,14.092s-11.219,7.039-11.219,7.039l-59.271,21.286Z"/>
      <path id="path80" d="M-288.773,184.886c-13.129-3.7-15.321-11.388-9.342-15.829,5.549-4.107,14.953-7.184,14.953-7.184l38.875-13.811V163.8l-27.976,10.019c-4.949,1.771-5.694,4.286-1.693,5.587,4.03,1.326,11.3.948,16.25-.832l13.42-4.862v14.1c-.856.145-1.8.3-2.67.435a88,88,0,0,1-41.817-3.362"/>
    </g>
    <text id="NEW_ITEM" data-name="NEW ITEM" transform="translate(403 179)" font-size="70" font-family="SegoeScript, Segoe Script"><tspan x="0" y="0">NEW ITEM</tspan></text>
  </g>
</svg>
